<svg width="557" height="183" viewBox="0 0 557 183" fill="none" xmlns="http://www.w3.org/2000/svg">
  <!-- B1 Asymmetric Grid Icon -->
  <g transform="translate(10, 10) scale(1.35)">
    <rect x="12" y="12" width="48" height="48" rx="10" fill="#6366F1"/>
    <text x="26" y="44" font-family="monospace" font-size="20" fill="white">&gt;_</text>
    <rect x="66" y="12" width="42" height="22" rx="8" fill="#818CF8"/>
    <rect x="66" y="40" width="42" height="20" rx="8" fill="#A5B4FC"/>
    <rect x="12" y="66" width="22" height="42" rx="8" fill="#A5B4FC"/>
    <rect x="40" y="66" width="28" height="42" rx="8" fill="#8B5CF6"/>
    <rect x="74" y="66" width="34" height="42" rx="8" fill="#C4B5FD"/>
  </g>

  <!-- "Devsy" in Lexend SemiBold (600) — SVG paths, true white -->
  <g transform="translate(195, 62)" fill="#FFFFFF">
    <path d="M91 0V700H378Q455 700 517.5 674.5Q580 649 625.5 602.5Q671 556 695.0 492.0Q719 428 719 350Q719 273 695.0 208.5Q671 144 626.0 97.5Q581 51 518.0 25.5Q455 0 378 0ZM241 109 225 135H373Q418 135 454.0 150.5Q490 166 515.5 193.5Q541 221 554.0 261.0Q567 301 567 350Q567 399 554.0 438.5Q541 478 515.5 506.0Q490 534 454.0 549.5Q418 565 373 565H222L241 589Z" transform="translate(0, 60) scale(0.06, -0.06)"/>
    <path d="M322 -10Q236 -10 171.5 25.0Q107 60 71.5 121.0Q36 182 36 261Q36 323 56.0 374.0Q76 425 112.0 462.5Q148 500 197.5 520.5Q247 541 305 541Q359 541 405.0 521.0Q451 501 484.5 465.5Q518 430 536.0 381.5Q554 333 552 277L551 233H126L103 320H434L418 302V324Q416 351 400.5 372.5Q385 394 361.0 406.5Q337 419 307 419Q263 419 232.5 402.0Q202 385 186.0 352.0Q170 319 170 272Q170 224 190.5 189.0Q211 154 248.5 134.5Q286 115 337 115Q372 115 401.0 126.0Q430 137 463 164L531 69Q502 43 467.0 25.5Q432 8 395.0 -1.0Q358 -10 322 -10Z" transform="translate(45.8, 60) scale(0.06, -0.06)"/>
    <path d="M237 0 15 529H171L312 134L279 128L427 529H579L346 0Z" transform="translate(81, 60) scale(0.06, -0.06)"/>
    <path d="M249 -10Q175 -10 117.5 14.5Q60 39 25 82L114 158Q144 125 182.0 110.5Q220 96 258 96Q273 96 285.5 99.5Q298 103 307.0 109.5Q316 116 320.5 125.5Q325 135 325 146Q325 168 307 180Q297 186 276.0 193.5Q255 201 222 210Q171 223 135.5 240.5Q100 258 79 280Q61 301 51.5 325.5Q42 350 42 380Q42 416 58.0 445.5Q74 475 102.5 496.0Q131 517 168.0 528.5Q205 540 246 540Q287 540 326.0 530.0Q365 520 398.5 501.5Q432 483 457 458L381 374Q363 391 340.5 405.0Q318 419 294.0 427.0Q270 435 251 435Q234 435 220.5 432.0Q207 429 198.0 422.5Q189 416 184.5 407.0Q180 398 180 387Q180 376 185.5 366.0Q191 356 201 349Q212 343 233.5 335.0Q255 327 292 317Q340 304 373.5 288.0Q407 272 427 251Q444 233 452.0 210.0Q460 187 460 159Q460 110 432.5 72.0Q405 34 357.0 12.0Q309 -10 249 -10Z" transform="translate(116.7, 60) scale(0.06, -0.06)"/>
    <path d="M145 -230 261 42 263 -40 5 529H166L295 224Q303 207 310.5 184.5Q318 162 323 142L299 131Q306 148 313.5 170.0Q321 192 329 217L440 529H602L380 0L289 -230Z" transform="translate(146.1, 60) scale(0.06, -0.06)"/>
  </g>
</svg>
